<svg width="122" height="38" viewBox="0 0 122 38" fill="none" xmlns="http://www.w3.org/2000/svg">
<path d="M12.7106 19H9.82366V11.6248L2.60631 0.911513H5.85412L12.3272 10.5873V10.6324L18.8905 0.911513H19.8152L12.7106 11.6473V19ZM23.5183 16.4514C22.6312 15.6093 21.9395 14.6395 21.4433 13.5419C21.1877 12.9855 20.9997 12.4142 20.8795 11.8278C20.7592 11.2263 20.699 10.6173 20.699 10.0009C20.699 8.73783 20.9471 7.54245 21.4433 6.41474C21.6989 5.87344 21.9996 5.36221 22.3455 4.88106C22.6913 4.38486 23.0823 3.93378 23.5183 3.5278C23.9543 3.09175 24.428 2.71585 24.9392 2.40009C25.4655 2.0693 26.0143 1.78361 26.5857 1.54303C27.1871 1.31749 27.7961 1.14457 28.4126 1.02428C29.029 0.888958 29.6681 0.821296 30.3297 0.821296C30.9913 0.821296 31.6303 0.888958 32.2468 1.02428C32.8633 1.14457 33.4722 1.31749 34.0737 1.54303C34.6451 1.78361 35.1864 2.0693 35.6976 2.40009C36.2238 2.71585 36.705 3.09175 37.1411 3.5278C38.0432 4.36983 38.7349 5.33214 39.216 6.41474C39.7273 7.52742 39.9829 8.72279 39.9829 10.0009C39.9829 10.6173 39.9152 11.2263 39.7799 11.8278C39.6596 12.4142 39.4717 12.9855 39.216 13.5419C38.9755 14.0982 38.6747 14.617 38.3139 15.0981C37.968 15.5793 37.5771 16.0304 37.1411 16.4514C36.269 17.2934 35.2465 17.9475 34.0737 18.4136C32.8557 18.8947 31.6077 19.1353 30.3297 19.1353C29.0516 19.1353 27.8036 18.8947 26.5857 18.4136C25.4129 17.9475 24.3904 17.2934 23.5183 16.4514ZM37.0734 10.0009C37.0734 8.54236 36.8554 7.28684 36.4193 6.23431C35.9983 5.16674 35.457 4.28713 34.7954 3.59547C34.1338 2.9038 33.4046 2.39257 32.6077 2.06178C31.8258 1.71595 31.074 1.54303 30.3522 1.54303C29.6455 1.54303 28.8937 1.71595 28.0968 2.06178C27.3149 2.39257 26.5932 2.9038 25.9316 3.59547C25.27 4.28713 24.7212 5.16674 24.2851 6.23431C23.8641 7.28684 23.6536 8.54236 23.6536 10.0009C23.6536 11.4443 23.8641 12.6999 24.2851 13.7674C24.7212 14.82 25.27 15.692 25.9316 16.3837C26.5932 17.0754 27.3149 17.5866 28.0968 17.9174C28.8937 18.2482 29.6455 18.4136 30.3522 18.4136C31.074 18.4136 31.8258 18.2482 32.6077 17.9174C33.4046 17.5866 34.1263 17.0754 34.7729 16.3837C35.4344 15.692 35.9833 14.82 36.4193 13.7674C36.8554 12.6999 37.0734 11.4443 37.0734 10.0009ZM45.9502 16.4288C45.5593 16.0078 45.2135 15.5718 44.9127 15.1207C44.6271 14.6546 44.379 14.1659 44.1685 13.6546C43.973 13.1284 43.8226 12.557 43.7174 11.9405C43.6272 11.324 43.582 10.6399 43.582 9.88809V0.956622H46.469V9.91065C46.469 10.4971 46.4915 11.1135 46.5366 11.7601C46.5818 12.3916 46.6645 13.0231 46.7847 13.6546C46.905 14.2711 47.078 14.8651 47.3035 15.4364C47.5441 15.9928 47.8523 16.489 48.2282 16.925C48.6041 17.346 49.0627 17.6843 49.604 17.94C50.1604 18.1956 50.822 18.3234 51.5888 18.3234H51.7016C52.694 18.3234 53.6412 18.1204 54.5434 17.7144C55.4456 17.2934 56.2425 16.6995 56.9341 15.9326C57.6408 15.1357 58.1746 14.226 58.5355 13.2036C58.9114 12.1811 59.1069 11.0835 59.1219 9.91065V0.956622H59.8436V9.88809C59.8436 11.1511 59.6331 12.3465 59.2121 13.4742C58.8061 14.5869 58.2197 15.5718 57.4529 16.4288C56.7462 17.2257 55.8891 17.8573 54.8817 18.3234C53.8743 18.8045 52.8142 19.0451 51.7016 19.0451C50.5889 19.0451 49.5288 18.8045 48.5214 18.3234C47.5441 17.8723 46.687 17.2408 45.9502 16.4288ZM75.9447 18.9774L68.998 10.249H66.3366V18.9774H63.4497V0.956622H71.8398C72.6368 0.956622 73.3886 1.06939 74.0953 1.29494C74.802 1.52048 75.4184 1.85127 75.9447 2.28732C76.471 2.72337 76.8694 3.22708 77.1401 3.79845C77.4258 4.36983 77.5686 4.97127 77.5686 5.60279C77.5686 6.23431 77.4258 6.83576 77.1401 7.40713C76.8694 7.9785 76.471 8.48221 75.9447 8.91826C75.4485 9.33927 74.8696 9.66255 74.208 9.88809C73.5615 10.0986 72.8548 10.2189 72.0879 10.249L79.0346 18.9774H75.9447ZM66.3366 9.52723H70.87C71.5466 9.52723 72.1255 9.42949 72.6067 9.23402C73.1029 9.03855 73.5013 8.7679 73.8021 8.42207C74.1028 8.0612 74.3208 7.64771 74.4561 7.18159C74.6065 6.70043 74.6817 6.17416 74.6817 5.60279C74.6817 5.03142 74.6065 4.50515 74.4561 4.024C74.3208 3.54284 74.1028 3.12934 73.8021 2.78351C73.5013 2.43768 73.1029 2.16703 72.6067 1.97156C72.1255 1.77609 71.5466 1.67836 70.87 1.67836H66.3366V9.52723ZM90.0587 0.979176L98.7195 19H95.6522L93.3065 14.1057H83.7435L81.3979 19H80.4957L89.1565 0.979176H90.0587ZM84.0818 13.384H92.9682L88.525 4.15932L84.0818 13.384ZM117.079 18.9774L116.695 18.5489L101.99 2.71585V18.9774H101.268V0.979176H103.659L116.357 14.6019V0.979176H117.079V18.9774V18.9549V18.9774Z" fill="#27201C"/>
<path d="M2.44527 36.02C2.39194 35.8533 2.30861 35.59 2.19527 35.23C2.08861 34.87 1.96527 34.4633 1.82527 34.01C1.68527 33.5567 1.53861 33.0833 1.38527 32.59C1.23194 32.09 1.08527 31.6167 0.945273 31.17C0.805273 30.7167 0.675273 30.31 0.555273 29.95C0.44194 29.59 0.35194 29.3233 0.285273 29.15C0.37194 29.1633 0.455273 29.1767 0.535273 29.19C0.615273 29.1967 0.698607 29.2 0.785273 29.2C0.87194 29.2 0.955273 29.1967 1.03527 29.19C1.11527 29.1767 1.19861 29.1633 1.28527 29.15C1.41194 29.6567 1.53527 30.1333 1.65527 30.58C1.77527 31.02 1.90194 31.47 2.03527 31.93C2.17527 32.3833 2.32194 32.8633 2.47527 33.37C2.63527 33.87 2.81527 34.4367 3.01527 35.07H3.03527C3.09527 34.89 3.17861 34.6433 3.28527 34.33C3.39194 34.01 3.50861 33.66 3.63527 33.28C3.76194 32.8933 3.89527 32.4933 4.03527 32.08C4.17527 31.6667 4.30527 31.2733 4.42527 30.9C4.54527 30.52 4.65194 30.1767 4.74527 29.87C4.83861 29.5567 4.90527 29.3167 4.94527 29.15C5.07861 29.1833 5.18861 29.2 5.27527 29.2C5.36194 29.2 5.47194 29.1833 5.60527 29.15C5.65194 29.33 5.72194 29.5767 5.81527 29.89C5.91527 30.2033 6.02527 30.5533 6.14527 30.94C6.26527 31.32 6.39194 31.7167 6.52527 32.13C6.66527 32.5433 6.79861 32.94 6.92527 33.32C7.05194 33.7 7.16527 34.0433 7.26527 34.35C7.37194 34.6567 7.45527 34.8967 7.51527 35.07H7.53527C7.58194 34.9233 7.65194 34.6967 7.74527 34.39C7.84527 34.0767 7.95527 33.7267 8.07527 33.34C8.20194 32.9467 8.32861 32.5367 8.45527 32.11C8.58861 31.6767 8.71194 31.2667 8.82527 30.88C8.94527 30.4867 9.04861 30.1367 9.13527 29.83C9.22861 29.5233 9.29194 29.2967 9.32527 29.15C9.38527 29.1633 9.44194 29.1767 9.49527 29.19C9.55527 29.1967 9.61527 29.2 9.67527 29.2C9.73527 29.2 9.79194 29.1967 9.84527 29.19C9.90527 29.1767 9.96527 29.1633 10.0253 29.15C9.95861 29.3033 9.86194 29.5567 9.73527 29.91C9.60861 30.2633 9.46527 30.6667 9.30527 31.12C9.15194 31.5733 8.98861 32.0533 8.81527 32.56C8.64861 33.0667 8.48527 33.55 8.32527 34.01C8.17194 34.4633 8.03194 34.8733 7.90527 35.24C7.78527 35.6 7.69527 35.86 7.63527 36.02C7.52861 36.0067 7.41527 36 7.29527 36C7.17527 36 7.06194 36.0067 6.95527 36.02C6.65527 35.0933 6.35861 34.1633 6.06527 33.23C5.77194 32.29 5.45527 31.32 5.11527 30.32H5.09527C5.04194 30.4733 4.96861 30.68 4.87527 30.94C4.78861 31.1933 4.68861 31.48 4.57527 31.8C4.46861 32.12 4.35194 32.4633 4.22527 32.83C4.09861 33.1967 3.97194 33.5667 3.84527 33.94C3.71861 34.3133 3.59527 34.68 3.47527 35.04C3.35527 35.4 3.24527 35.7267 3.14527 36.02C3.03861 36.0067 2.92194 36 2.79527 36C2.66861 36 2.55194 36.0067 2.44527 36.02ZM13.6353 31.73C13.6353 31.29 13.6253 30.8567 13.6053 30.43C13.5919 30.0033 13.5753 29.5767 13.5553 29.15C13.8553 29.1633 14.1519 29.1767 14.4453 29.19C14.7453 29.1967 15.0453 29.2 15.3453 29.2C15.6453 29.2 15.9419 29.1967 16.2353 29.19C16.5286 29.1767 16.8253 29.1633 17.1253 29.15C17.1053 29.25 17.0953 29.35 17.0953 29.45C17.0953 29.55 17.1053 29.65 17.1253 29.75C16.9119 29.7367 16.7153 29.7233 16.5353 29.71C16.3619 29.6967 16.1753 29.6833 15.9753 29.67C15.7819 29.6567 15.5686 29.6467 15.3353 29.64C15.1019 29.6267 14.8219 29.62 14.4953 29.62C14.4886 29.8333 14.4786 30.0367 14.4653 30.23C14.4586 30.4233 14.4553 30.6433 14.4553 30.89C14.4553 31.15 14.4553 31.4033 14.4553 31.65C14.4619 31.8967 14.4653 32.0833 14.4653 32.21C14.7586 32.21 15.0219 32.2067 15.2553 32.2C15.4886 32.1933 15.7019 32.1867 15.8953 32.18C16.0886 32.1667 16.2653 32.1567 16.4253 32.15C16.5919 32.1367 16.7486 32.1233 16.8953 32.11C16.8753 32.21 16.8653 32.3133 16.8653 32.42C16.8653 32.52 16.8753 32.62 16.8953 32.72C16.7219 32.7 16.5186 32.6833 16.2853 32.67C16.0586 32.6567 15.8286 32.65 15.5953 32.65C15.3686 32.6433 15.1519 32.64 14.9453 32.64C14.7453 32.6333 14.5853 32.63 14.4653 32.63C14.4653 32.69 14.4619 32.7567 14.4553 32.83C14.4553 32.8967 14.4553 32.9833 14.4553 33.09V33.48V34.08C14.4553 34.46 14.4553 34.7733 14.4553 35.02C14.4619 35.2667 14.4686 35.4533 14.4753 35.58C14.6953 35.58 14.9286 35.58 15.1753 35.58C15.4286 35.58 15.6753 35.5767 15.9153 35.57C16.1619 35.5567 16.3919 35.5433 16.6053 35.53C16.8253 35.51 17.0153 35.4833 17.1753 35.45C17.1619 35.4967 17.1519 35.55 17.1453 35.61C17.1453 35.6633 17.1453 35.7133 17.1453 35.76C17.1453 35.8667 17.1553 35.9533 17.1753 36.02C16.8753 36.0067 16.5753 36 16.2753 36C15.9819 36 15.6819 36 15.3753 36C15.0686 36 14.7653 36 14.4653 36C14.1653 36 13.8619 36.0067 13.5553 36.02C13.5753 35.5933 13.5919 35.17 13.6053 34.75C13.6253 34.3233 13.6353 33.89 13.6353 33.45V31.73ZM21.1353 31.74C21.1353 31.3 21.1253 30.87 21.1053 30.45C21.0919 30.0233 21.0753 29.59 21.0553 29.15C21.1419 29.1633 21.2253 29.1767 21.3053 29.19C21.3853 29.1967 21.4653 29.2 21.5453 29.2C21.6253 29.2 21.7053 29.1967 21.7853 29.19C21.8653 29.1767 21.9486 29.1633 22.0353 29.15C22.0153 29.59 21.9953 30.0233 21.9753 30.45C21.9619 30.87 21.9553 31.3 21.9553 31.74C21.9553 32.58 21.9586 33.31 21.9653 33.93C21.9719 34.5433 21.9786 35.0933 21.9853 35.58C22.4586 35.58 22.9119 35.5767 23.3453 35.57C23.7786 35.5567 24.2453 35.5167 24.7453 35.45C24.7119 35.57 24.6953 35.67 24.6953 35.75C24.6953 35.8233 24.7119 35.9133 24.7453 36.02C24.4386 36.0067 24.1319 36 23.8253 36C23.5186 36 23.2119 36 22.9053 36C22.5853 36 22.2753 36 21.9753 36C21.6819 36 21.3753 36.0067 21.0553 36.02C21.0753 35.6067 21.0919 35.1867 21.1053 34.76C21.1253 34.3333 21.1353 33.9 21.1353 33.46V31.74ZM28.6353 31.74C28.6353 31.3 28.6253 30.87 28.6053 30.45C28.5919 30.0233 28.5753 29.59 28.5553 29.15C28.6419 29.1633 28.7253 29.1767 28.8053 29.19C28.8853 29.1967 28.9653 29.2 29.0453 29.2C29.1253 29.2 29.2053 29.1967 29.2853 29.19C29.3653 29.1767 29.4486 29.1633 29.5353 29.15C29.5153 29.59 29.4953 30.0233 29.4753 30.45C29.4619 30.87 29.4553 31.3 29.4553 31.74C29.4553 32.58 29.4586 33.31 29.4653 33.93C29.4719 34.5433 29.4786 35.0933 29.4853 35.58C29.9586 35.58 30.4119 35.5767 30.8453 35.57C31.2786 35.5567 31.7453 35.5167 32.2453 35.45C32.2119 35.57 32.1953 35.67 32.1953 35.75C32.1953 35.8233 32.2119 35.9133 32.2453 36.02C31.9386 36.0067 31.6319 36 31.3253 36C31.0186 36 30.7119 36 30.4053 36C30.0853 36 29.7753 36 29.4753 36C29.1819 36 28.8753 36.0067 28.5553 36.02C28.5753 35.6067 28.5919 35.1867 28.6053 34.76C28.6253 34.3333 28.6353 33.9 28.6353 33.46V31.74ZM41.7653 36.15C40.9986 35.2633 40.1819 34.3567 39.3153 33.43C38.4486 32.4967 37.5819 31.57 36.7153 30.65C36.7086 30.8367 36.7019 31.0867 36.6953 31.4C36.6886 31.7133 36.6853 32.14 36.6853 32.68C36.6853 32.82 36.6853 32.9933 36.6853 33.2C36.6919 33.4067 36.6953 33.6233 36.6953 33.85C36.7019 34.0767 36.7086 34.3067 36.7153 34.54C36.7219 34.7733 36.7286 34.99 36.7353 35.19C36.7419 35.39 36.7486 35.5667 36.7553 35.72C36.7619 35.8667 36.7686 35.9667 36.7753 36.02C36.6686 36.0067 36.5519 36 36.4253 36C36.2919 36 36.1686 36.0067 36.0553 36.02C36.0686 35.9533 36.0819 35.83 36.0953 35.65C36.1153 35.47 36.1319 35.2567 36.1453 35.01C36.1586 34.7567 36.1719 34.4833 36.1853 34.19C36.2053 33.8967 36.2186 33.6033 36.2253 33.31C36.2386 33.0167 36.2486 32.73 36.2553 32.45C36.2619 32.17 36.2653 31.92 36.2653 31.7C36.2653 31.06 36.2619 30.51 36.2553 30.05C36.2553 29.59 36.2486 29.2467 36.2353 29.02H36.3953C36.8019 29.46 37.2353 29.9333 37.6953 30.44C38.1619 30.94 38.6219 31.4367 39.0753 31.93C39.5353 32.4167 39.9686 32.88 40.3753 33.32C40.7886 33.7533 41.1486 34.1233 41.4553 34.43V33.07C41.4553 32.37 41.4486 31.69 41.4353 31.03C41.4286 30.3633 41.4086 29.7367 41.3753 29.15C41.5086 29.1833 41.6219 29.2 41.7153 29.2C41.7953 29.2 41.9019 29.1833 42.0353 29.15C42.0219 29.2967 42.0053 29.5167 41.9853 29.81C41.9719 30.1033 41.9553 30.4167 41.9353 30.75C41.9219 31.0833 41.9086 31.41 41.8953 31.73C41.8819 32.05 41.8753 32.3067 41.8753 32.5C41.8753 32.6667 41.8753 32.8667 41.8753 33.1C41.8753 33.3267 41.8753 33.5633 41.8753 33.81C41.8819 34.0567 41.8853 34.3067 41.8853 34.56C41.8919 34.8067 41.8953 35.04 41.8953 35.26C41.9019 35.4733 41.9053 35.66 41.9053 35.82C41.9053 35.9667 41.9053 36.0767 41.9053 36.15H41.7653ZM46.4185 31.73C46.4185 31.29 46.4085 30.8567 46.3885 30.43C46.3751 30.0033 46.3585 29.5767 46.3385 29.15C46.6385 29.1633 46.9351 29.1767 47.2285 29.19C47.5285 29.1967 47.8285 29.2 48.1285 29.2C48.4285 29.2 48.7251 29.1967 49.0185 29.19C49.3118 29.1767 49.6085 29.1633 49.9085 29.15C49.8885 29.25 49.8785 29.35 49.8785 29.45C49.8785 29.55 49.8885 29.65 49.9085 29.75C49.6951 29.7367 49.4985 29.7233 49.3185 29.71C49.1451 29.6967 48.9585 29.6833 48.7585 29.67C48.5651 29.6567 48.3518 29.6467 48.1185 29.64C47.8851 29.6267 47.6051 29.62 47.2785 29.62C47.2718 29.8333 47.2618 30.0367 47.2485 30.23C47.2418 30.4233 47.2385 30.6433 47.2385 30.89C47.2385 31.15 47.2385 31.4033 47.2385 31.65C47.2451 31.8967 47.2485 32.0833 47.2485 32.21C47.5418 32.21 47.8051 32.2067 48.0385 32.2C48.2718 32.1933 48.4851 32.1867 48.6785 32.18C48.8718 32.1667 49.0485 32.1567 49.2085 32.15C49.3751 32.1367 49.5318 32.1233 49.6785 32.11C49.6585 32.21 49.6485 32.3133 49.6485 32.42C49.6485 32.52 49.6585 32.62 49.6785 32.72C49.5051 32.7 49.3018 32.6833 49.0685 32.67C48.8418 32.6567 48.6118 32.65 48.3785 32.65C48.1518 32.6433 47.9351 32.64 47.7285 32.64C47.5285 32.6333 47.3685 32.63 47.2485 32.63C47.2485 32.69 47.2451 32.7567 47.2385 32.83C47.2385 32.8967 47.2385 32.9833 47.2385 33.09V33.48V34.08C47.2385 34.46 47.2385 34.7733 47.2385 35.02C47.2451 35.2667 47.2518 35.4533 47.2585 35.58C47.4785 35.58 47.7118 35.58 47.9585 35.58C48.2118 35.58 48.4585 35.5767 48.6985 35.57C48.9451 35.5567 49.1751 35.5433 49.3885 35.53C49.6085 35.51 49.7985 35.4833 49.9585 35.45C49.9451 35.4967 49.9351 35.55 49.9285 35.61C49.9285 35.6633 49.9285 35.7133 49.9285 35.76C49.9285 35.8667 49.9385 35.9533 49.9585 36.02C49.6585 36.0067 49.3585 36 49.0585 36C48.7651 36 48.4651 36 48.1585 36C47.8518 36 47.5485 36 47.2485 36C46.9485 36 46.6451 36.0067 46.3385 36.02C46.3585 35.5933 46.3751 35.17 46.3885 34.75C46.4085 34.3233 46.4185 33.89 46.4185 33.45V31.73ZM53.6985 34.72C53.7518 34.84 53.8218 34.9633 53.9085 35.09C54.0018 35.21 54.1118 35.32 54.2385 35.42C54.3718 35.52 54.5251 35.6033 54.6985 35.67C54.8718 35.73 55.0651 35.76 55.2785 35.76C55.4985 35.76 55.6951 35.7233 55.8685 35.65C56.0485 35.57 56.1985 35.4667 56.3185 35.34C56.4451 35.2067 56.5418 35.0533 56.6085 34.88C56.6751 34.7 56.7085 34.51 56.7085 34.31C56.7085 34.0033 56.6285 33.76 56.4685 33.58C56.3151 33.4 56.1218 33.25 55.8885 33.13C55.6551 33.01 55.4018 32.9 55.1285 32.8C54.8618 32.7 54.6118 32.5767 54.3785 32.43C54.1451 32.2767 53.9485 32.0833 53.7885 31.85C53.6351 31.6167 53.5585 31.3033 53.5585 30.91C53.5585 30.63 53.6085 30.3767 53.7085 30.15C53.8085 29.9167 53.9518 29.7167 54.1385 29.55C54.3318 29.3833 54.5618 29.2533 54.8285 29.16C55.0951 29.0667 55.3951 29.02 55.7285 29.02C56.0485 29.02 56.3251 29.06 56.5585 29.14C56.7918 29.2133 57.0085 29.33 57.2085 29.49C57.1485 29.6033 57.0985 29.7233 57.0585 29.85C57.0185 29.9767 56.9785 30.1367 56.9385 30.33H56.8185C56.7851 30.2367 56.7385 30.1367 56.6785 30.03C56.6251 29.9167 56.5485 29.8133 56.4485 29.72C56.3551 29.6267 56.2418 29.55 56.1085 29.49C55.9751 29.4233 55.8151 29.39 55.6285 29.39C55.4418 29.39 55.2685 29.42 55.1085 29.48C54.9551 29.54 54.8185 29.6267 54.6985 29.74C54.5851 29.8467 54.4951 29.9767 54.4285 30.13C54.3685 30.2833 54.3385 30.45 54.3385 30.63C54.3385 30.9433 54.4151 31.19 54.5685 31.37C54.7285 31.55 54.9251 31.7033 55.1585 31.83C55.3918 31.95 55.6418 32.06 55.9085 32.16C56.1818 32.2533 56.4351 32.37 56.6685 32.51C56.9018 32.65 57.0951 32.83 57.2485 33.05C57.4085 33.27 57.4885 33.5633 57.4885 33.93C57.4885 34.2367 57.4318 34.5267 57.3185 34.8C57.2118 35.0733 57.0518 35.3133 56.8385 35.52C56.6318 35.72 56.3751 35.8767 56.0685 35.99C55.7685 36.0967 55.4251 36.15 55.0385 36.15C54.6251 36.15 54.2885 36.0967 54.0285 35.99C53.7751 35.8767 53.5618 35.75 53.3885 35.61C53.4485 35.4567 53.4885 35.32 53.5085 35.2C53.5351 35.0733 53.5585 34.9133 53.5785 34.72H53.6985ZM61.1985 34.72C61.2518 34.84 61.3218 34.9633 61.4085 35.09C61.5018 35.21 61.6118 35.32 61.7385 35.42C61.8718 35.52 62.0251 35.6033 62.1985 35.67C62.3718 35.73 62.5651 35.76 62.7785 35.76C62.9985 35.76 63.1951 35.7233 63.3685 35.65C63.5485 35.57 63.6985 35.4667 63.8185 35.34C63.9451 35.2067 64.0418 35.0533 64.1085 34.88C64.1751 34.7 64.2085 34.51 64.2085 34.31C64.2085 34.0033 64.1285 33.76 63.9685 33.58C63.8151 33.4 63.6218 33.25 63.3885 33.13C63.1551 33.01 62.9018 32.9 62.6285 32.8C62.3618 32.7 62.1118 32.5767 61.8785 32.43C61.6451 32.2767 61.4485 32.0833 61.2885 31.85C61.1351 31.6167 61.0585 31.3033 61.0585 30.91C61.0585 30.63 61.1085 30.3767 61.2085 30.15C61.3085 29.9167 61.4518 29.7167 61.6385 29.55C61.8318 29.3833 62.0618 29.2533 62.3285 29.16C62.5951 29.0667 62.8951 29.02 63.2285 29.02C63.5485 29.02 63.8251 29.06 64.0585 29.14C64.2918 29.2133 64.5085 29.33 64.7085 29.49C64.6485 29.6033 64.5985 29.7233 64.5585 29.85C64.5185 29.9767 64.4785 30.1367 64.4385 30.33H64.3185C64.2851 30.2367 64.2385 30.1367 64.1785 30.03C64.1251 29.9167 64.0485 29.8133 63.9485 29.72C63.8551 29.6267 63.7418 29.55 63.6085 29.49C63.4751 29.4233 63.3151 29.39 63.1285 29.39C62.9418 29.39 62.7685 29.42 62.6085 29.48C62.4551 29.54 62.3185 29.6267 62.1985 29.74C62.0851 29.8467 61.9951 29.9767 61.9285 30.13C61.8685 30.2833 61.8385 30.45 61.8385 30.63C61.8385 30.9433 61.9151 31.19 62.0685 31.37C62.2285 31.55 62.4251 31.7033 62.6585 31.83C62.8918 31.95 63.1418 32.06 63.4085 32.16C63.6818 32.2533 63.9351 32.37 64.1685 32.51C64.4018 32.65 64.5951 32.83 64.7485 33.05C64.9085 33.27 64.9885 33.5633 64.9885 33.93C64.9885 34.2367 64.9318 34.5267 64.8185 34.8C64.7118 35.0733 64.5518 35.3133 64.3385 35.52C64.1318 35.72 63.8751 35.8767 63.5685 35.99C63.2685 36.0967 62.9251 36.15 62.5385 36.15C62.1251 36.15 61.7885 36.0967 61.5285 35.99C61.2751 35.8767 61.0618 35.75 60.8885 35.61C60.9485 35.4567 60.9885 35.32 61.0085 35.2C61.0351 35.0733 61.0585 34.9133 61.0785 34.72H61.1985ZM79.3717 35.61C79.3117 35.6633 79.215 35.7233 79.0817 35.79C78.955 35.85 78.7983 35.9067 78.6117 35.96C78.4317 36.0067 78.2283 36.05 78.0017 36.09C77.775 36.13 77.5383 36.15 77.2917 36.15C76.765 36.15 76.2783 36.0767 75.8317 35.93C75.385 35.7767 74.9983 35.5467 74.6717 35.24C74.3517 34.9333 74.0983 34.56 73.9117 34.12C73.7317 33.6733 73.6417 33.1667 73.6417 32.6C73.6417 32.0333 73.7317 31.53 73.9117 31.09C74.0983 30.6433 74.355 30.2667 74.6817 29.96C75.015 29.6533 75.4117 29.42 75.8717 29.26C76.3317 29.1 76.8383 29.02 77.3917 29.02C77.8317 29.02 78.2317 29.0667 78.5917 29.16C78.9583 29.2467 79.2817 29.3533 79.5617 29.48C79.5083 29.5733 79.465 29.7 79.4317 29.86C79.3983 30.02 79.3717 30.1533 79.3517 30.26L79.2917 30.28C79.225 30.2 79.1317 30.11 79.0117 30.01C78.8917 29.91 78.7517 29.8133 78.5917 29.72C78.4317 29.6267 78.2517 29.55 78.0517 29.49C77.8517 29.4233 77.6317 29.39 77.3917 29.39C76.9983 29.39 76.6317 29.4533 76.2917 29.58C75.9583 29.7067 75.665 29.9033 75.4117 30.17C75.165 30.43 74.9717 30.7633 74.8317 31.17C74.6917 31.57 74.6217 32.0467 74.6217 32.6C74.6217 33.1533 74.6917 33.6333 74.8317 34.04C74.9717 34.44 75.165 34.7733 75.4117 35.04C75.665 35.3 75.9583 35.4933 76.2917 35.62C76.6317 35.7467 76.9983 35.81 77.3917 35.81C77.6317 35.81 77.8517 35.78 78.0517 35.72C78.2583 35.66 78.445 35.59 78.6117 35.51C78.785 35.4233 78.9383 35.3333 79.0717 35.24C79.2117 35.14 79.3283 35.0533 79.4217 34.98L79.4617 35.02L79.3717 35.61ZM83.3716 31.73C83.3716 31.29 83.3616 30.8567 83.3416 30.43C83.3283 30.0033 83.3116 29.5767 83.2916 29.15C83.5916 29.1633 83.8883 29.1767 84.1816 29.19C84.4816 29.1967 84.7816 29.2 85.0816 29.2C85.3816 29.2 85.6783 29.1967 85.9716 29.19C86.2649 29.1767 86.5616 29.1633 86.8616 29.15C86.8416 29.25 86.8316 29.35 86.8316 29.45C86.8316 29.55 86.8416 29.65 86.8616 29.75C86.6483 29.7367 86.4516 29.7233 86.2716 29.71C86.0983 29.6967 85.9116 29.6833 85.7116 29.67C85.5183 29.6567 85.3049 29.6467 85.0716 29.64C84.8383 29.6267 84.5583 29.62 84.2316 29.62C84.2249 29.8333 84.2149 30.0367 84.2016 30.23C84.1949 30.4233 84.1916 30.6433 84.1916 30.89C84.1916 31.15 84.1916 31.4033 84.1916 31.65C84.1983 31.8967 84.2016 32.0833 84.2016 32.21C84.4949 32.21 84.7583 32.2067 84.9916 32.2C85.2249 32.1933 85.4383 32.1867 85.6316 32.18C85.8249 32.1667 86.0016 32.1567 86.1616 32.15C86.3283 32.1367 86.4849 32.1233 86.6316 32.11C86.6116 32.21 86.6016 32.3133 86.6016 32.42C86.6016 32.52 86.6116 32.62 86.6316 32.72C86.4583 32.7 86.2549 32.6833 86.0216 32.67C85.7949 32.6567 85.5649 32.65 85.3316 32.65C85.1049 32.6433 84.8883 32.64 84.6816 32.64C84.4816 32.6333 84.3216 32.63 84.2016 32.63C84.2016 32.69 84.1983 32.7567 84.1916 32.83C84.1916 32.8967 84.1916 32.9833 84.1916 33.09V33.48V34.08C84.1916 34.46 84.1916 34.7733 84.1916 35.02C84.1983 35.2667 84.2049 35.4533 84.2116 35.58C84.4316 35.58 84.6649 35.58 84.9116 35.58C85.1649 35.58 85.4116 35.5767 85.6516 35.57C85.8983 35.5567 86.1283 35.5433 86.3416 35.53C86.5616 35.51 86.7516 35.4833 86.9116 35.45C86.8983 35.4967 86.8883 35.55 86.8816 35.61C86.8816 35.6633 86.8816 35.7133 86.8816 35.76C86.8816 35.8667 86.8916 35.9533 86.9116 36.02C86.6116 36.0067 86.3116 36 86.0116 36C85.7183 36 85.4183 36 85.1116 36C84.8049 36 84.5016 36 84.2016 36C83.9016 36 83.5983 36.0067 83.2916 36.02C83.3116 35.5933 83.3283 35.17 83.3416 34.75C83.3616 34.3233 83.3716 33.89 83.3716 33.45V31.73ZM96.5016 36.15C95.7349 35.2633 94.9183 34.3567 94.0516 33.43C93.1849 32.4967 92.3183 31.57 91.4516 30.65C91.4449 30.8367 91.4383 31.0867 91.4316 31.4C91.4249 31.7133 91.4216 32.14 91.4216 32.68C91.4216 32.82 91.4216 32.9933 91.4216 33.2C91.4283 33.4067 91.4316 33.6233 91.4316 33.85C91.4383 34.0767 91.4449 34.3067 91.4516 34.54C91.4583 34.7733 91.4649 34.99 91.4716 35.19C91.4783 35.39 91.4849 35.5667 91.4916 35.72C91.4983 35.8667 91.5049 35.9667 91.5116 36.02C91.4049 36.0067 91.2883 36 91.1616 36C91.0283 36 90.9049 36.0067 90.7916 36.02C90.8049 35.9533 90.8183 35.83 90.8316 35.65C90.8516 35.47 90.8683 35.2567 90.8816 35.01C90.8949 34.7567 90.9083 34.4833 90.9216 34.19C90.9416 33.8967 90.9549 33.6033 90.9616 33.31C90.9749 33.0167 90.9849 32.73 90.9916 32.45C90.9983 32.17 91.0016 31.92 91.0016 31.7C91.0016 31.06 90.9983 30.51 90.9916 30.05C90.9916 29.59 90.9849 29.2467 90.9716 29.02H91.1316C91.5383 29.46 91.9716 29.9333 92.4316 30.44C92.8983 30.94 93.3583 31.4367 93.8116 31.93C94.2716 32.4167 94.7049 32.88 95.1116 33.32C95.5249 33.7533 95.8849 34.1233 96.1916 34.43V33.07C96.1916 32.37 96.1849 31.69 96.1716 31.03C96.1649 30.3633 96.1449 29.7367 96.1116 29.15C96.2449 29.1833 96.3583 29.2 96.4516 29.2C96.5316 29.2 96.6383 29.1833 96.7716 29.15C96.7583 29.2967 96.7416 29.5167 96.7216 29.81C96.7083 30.1033 96.6916 30.4167 96.6716 30.75C96.6583 31.0833 96.6449 31.41 96.6316 31.73C96.6183 32.05 96.6116 32.3067 96.6116 32.5C96.6116 32.6667 96.6116 32.8667 96.6116 33.1C96.6116 33.3267 96.6116 33.5633 96.6116 33.81C96.6183 34.0567 96.6216 34.3067 96.6216 34.56C96.6283 34.8067 96.6316 35.04 96.6316 35.26C96.6383 35.4733 96.6416 35.66 96.6416 35.82C96.6416 35.9667 96.6416 36.0767 96.6416 36.15H96.5016ZM102.545 31.74C102.545 31.0467 102.535 30.3567 102.515 29.67C102.341 29.67 102.158 29.6733 101.965 29.68C101.778 29.68 101.588 29.6867 101.395 29.7C101.208 29.7067 101.025 29.7167 100.845 29.73C100.671 29.7433 100.515 29.76 100.375 29.78C100.408 29.66 100.425 29.5533 100.425 29.46C100.425 29.3867 100.408 29.2833 100.375 29.15C100.815 29.1633 101.245 29.1767 101.665 29.19C102.085 29.1967 102.515 29.2 102.955 29.2C103.395 29.2 103.825 29.1967 104.245 29.19C104.665 29.1767 105.095 29.1633 105.535 29.15C105.501 29.2833 105.485 29.39 105.485 29.47C105.485 29.5567 105.501 29.66 105.535 29.78C105.395 29.76 105.235 29.7433 105.055 29.73C104.881 29.7167 104.698 29.7067 104.505 29.7C104.318 29.6867 104.128 29.68 103.935 29.68C103.748 29.6733 103.568 29.67 103.395 29.67C103.375 30.3567 103.365 31.0467 103.365 31.74V33.46C103.365 33.9 103.371 34.3333 103.385 34.76C103.405 35.1867 103.425 35.6067 103.445 36.02C103.291 36.0067 103.128 36 102.955 36C102.781 36 102.618 36.0067 102.465 36.02C102.485 35.6067 102.501 35.1867 102.515 34.76C102.535 34.3333 102.545 33.9 102.545 33.46V31.74ZM109.211 31.73C109.211 31.29 109.201 30.8567 109.181 30.43C109.168 30.0033 109.151 29.5767 109.131 29.15C109.431 29.1633 109.728 29.1767 110.021 29.19C110.321 29.1967 110.621 29.2 110.921 29.2C111.221 29.2 111.518 29.1967 111.811 29.19C112.105 29.1767 112.401 29.1633 112.701 29.15C112.681 29.25 112.671 29.35 112.671 29.45C112.671 29.55 112.681 29.65 112.701 29.75C112.488 29.7367 112.291 29.7233 112.111 29.71C111.938 29.6967 111.751 29.6833 111.551 29.67C111.358 29.6567 111.145 29.6467 110.911 29.64C110.678 29.6267 110.398 29.62 110.071 29.62C110.065 29.8333 110.055 30.0367 110.041 30.23C110.035 30.4233 110.031 30.6433 110.031 30.89C110.031 31.15 110.031 31.4033 110.031 31.65C110.038 31.8967 110.041 32.0833 110.041 32.21C110.335 32.21 110.598 32.2067 110.831 32.2C111.065 32.1933 111.278 32.1867 111.471 32.18C111.665 32.1667 111.841 32.1567 112.001 32.15C112.168 32.1367 112.325 32.1233 112.471 32.11C112.451 32.21 112.441 32.3133 112.441 32.42C112.441 32.52 112.451 32.62 112.471 32.72C112.298 32.7 112.095 32.6833 111.861 32.67C111.635 32.6567 111.405 32.65 111.171 32.65C110.945 32.6433 110.728 32.64 110.521 32.64C110.321 32.6333 110.161 32.63 110.041 32.63C110.041 32.69 110.038 32.7567 110.031 32.83C110.031 32.8967 110.031 32.9833 110.031 33.09V33.48V34.08C110.031 34.46 110.031 34.7733 110.031 35.02C110.038 35.2667 110.045 35.4533 110.051 35.58C110.271 35.58 110.505 35.58 110.751 35.58C111.005 35.58 111.251 35.5767 111.491 35.57C111.738 35.5567 111.968 35.5433 112.181 35.53C112.401 35.51 112.591 35.4833 112.751 35.45C112.738 35.4967 112.728 35.55 112.721 35.61C112.721 35.6633 112.721 35.7133 112.721 35.76C112.721 35.8667 112.731 35.9533 112.751 36.02C112.451 36.0067 112.151 36 111.851 36C111.558 36 111.258 36 110.951 36C110.645 36 110.341 36 110.041 36C109.741 36 109.438 36.0067 109.131 36.02C109.151 35.5933 109.168 35.17 109.181 34.75C109.201 34.3233 109.211 33.89 109.211 33.45V31.73ZM116.711 31.74C116.711 31.3 116.701 30.87 116.681 30.45C116.668 30.0233 116.651 29.59 116.631 29.15C116.825 29.1633 117.015 29.1767 117.201 29.19C117.388 29.1967 117.578 29.2 117.771 29.2C117.965 29.2 118.155 29.1933 118.341 29.18C118.528 29.16 118.718 29.15 118.911 29.15C119.191 29.15 119.458 29.1767 119.711 29.23C119.965 29.2833 120.185 29.3733 120.371 29.5C120.565 29.62 120.715 29.78 120.821 29.98C120.935 30.18 120.991 30.43 120.991 30.73C120.991 31.05 120.918 31.3267 120.771 31.56C120.631 31.7867 120.458 31.9767 120.251 32.13C120.045 32.2767 119.821 32.3933 119.581 32.48C119.348 32.56 119.135 32.6133 118.941 32.64C119.021 32.74 119.131 32.88 119.271 33.06C119.411 33.24 119.568 33.44 119.741 33.66C119.915 33.8733 120.095 34.1 120.281 34.34C120.468 34.5733 120.648 34.8 120.821 35.02C120.995 35.2333 121.158 35.43 121.311 35.61C121.465 35.79 121.588 35.9267 121.681 36.02C121.581 36.0067 121.481 36 121.381 36C121.281 36 121.181 36 121.081 36C120.988 36 120.891 36 120.791 36C120.691 36 120.595 36.0067 120.501 36.02C120.401 35.88 120.248 35.67 120.041 35.39C119.841 35.11 119.618 34.81 119.371 34.49C119.125 34.17 118.871 33.8533 118.611 33.54C118.358 33.22 118.125 32.95 117.911 32.73H117.531V33.46C117.531 33.9 117.538 34.3333 117.551 34.76C117.571 35.1867 117.591 35.6067 117.611 36.02C117.458 36.0067 117.295 36 117.121 36C116.948 36 116.785 36.0067 116.631 36.02C116.651 35.6067 116.668 35.1867 116.681 34.76C116.701 34.3333 116.711 33.9 116.711 33.46V31.74ZM117.531 32.31C117.625 32.33 117.725 32.3433 117.831 32.35C117.945 32.3567 118.068 32.36 118.201 32.36C118.408 32.36 118.621 32.3367 118.841 32.29C119.068 32.2433 119.275 32.1633 119.461 32.05C119.648 31.93 119.801 31.7733 119.921 31.58C120.048 31.38 120.111 31.13 120.111 30.83C120.111 30.57 120.061 30.3567 119.961 30.19C119.868 30.0167 119.745 29.88 119.591 29.78C119.438 29.68 119.271 29.6133 119.091 29.58C118.911 29.54 118.735 29.52 118.561 29.52C118.328 29.52 118.135 29.5267 117.981 29.54C117.828 29.5467 117.698 29.5567 117.591 29.57C117.578 29.9367 117.565 30.3 117.551 30.66C117.538 31.02 117.531 31.38 117.531 31.74V32.31Z" fill="#27201C"/>
</svg>
